<mxfile host="app.diagrams.net" modified="2023-04-14T01:41:34.097Z" agent="Mozilla/5.0 (Macintosh; Intel Mac OS X 10_15_7) AppleWebKit/605.1.15 (KHTML, like Gecko) Version/16.2 Safari/605.1.15" etag="r83zXAjK-Elp8symFR0w" version="21.1.6" type="device">
  <diagram name="Page-1" id="D3Nub6iKepEZnZQrFMyS">
    <mxGraphModel dx="855" dy="577" grid="1" gridSize="10" guides="1" tooltips="1" connect="1" arrows="1" fold="1" page="1" pageScale="1" pageWidth="850" pageHeight="1100" math="0" shadow="0">
      <root>
        <mxCell id="0" />
        <mxCell id="1" parent="0" />
        <mxCell id="cirKSVXsWCPnHdK5_3kZ-35" value="&lt;b&gt;Project &amp;nbsp;Directory&lt;br&gt;&lt;/b&gt;&lt;br&gt;&lt;br&gt;&lt;br&gt;&lt;br&gt;&lt;br&gt;&lt;br&gt;&lt;br&gt;&lt;br&gt;&lt;br&gt;&lt;br&gt;&lt;br&gt;&lt;br&gt;&lt;br&gt;" style="rounded=1;whiteSpace=wrap;html=1;fillColor=#dae8fc;strokeColor=#6c8ebf;" vertex="1" parent="1">
          <mxGeometry x="10" y="170" width="150" height="260" as="geometry" />
        </mxCell>
        <mxCell id="cirKSVXsWCPnHdK5_3kZ-4" value="&lt;b&gt;.ato file&lt;/b&gt;" style="rounded=1;whiteSpace=wrap;html=1;fillColor=#ffe6cc;strokeColor=#d79b00;" vertex="1" parent="1">
          <mxGeometry x="20" y="340" width="120" height="60" as="geometry" />
        </mxCell>
        <mxCell id="cirKSVXsWCPnHdK5_3kZ-6" style="edgeStyle=orthogonalEdgeStyle;rounded=0;orthogonalLoop=1;jettySize=auto;html=1;entryX=0;entryY=0.5;entryDx=0;entryDy=0;" edge="1" parent="1" source="cirKSVXsWCPnHdK5_3kZ-11" target="cirKSVXsWCPnHdK5_3kZ-5">
          <mxGeometry relative="1" as="geometry" />
        </mxCell>
        <mxCell id="cirKSVXsWCPnHdK5_3kZ-2" value="&lt;b&gt;.ato file&lt;/b&gt;" style="rounded=1;whiteSpace=wrap;html=1;fillColor=#ffe6cc;strokeColor=#d79b00;" vertex="1" parent="1">
          <mxGeometry x="25" y="350" width="120" height="60" as="geometry" />
        </mxCell>
        <mxCell id="cirKSVXsWCPnHdK5_3kZ-8" style="edgeStyle=orthogonalEdgeStyle;rounded=0;orthogonalLoop=1;jettySize=auto;html=1;entryX=0;entryY=0.5;entryDx=0;entryDy=0;" edge="1" parent="1" source="cirKSVXsWCPnHdK5_3kZ-14" target="cirKSVXsWCPnHdK5_3kZ-7">
          <mxGeometry relative="1" as="geometry" />
        </mxCell>
        <mxCell id="cirKSVXsWCPnHdK5_3kZ-5" value="Parse tree" style="rounded=1;whiteSpace=wrap;html=1;fillColor=#d5e8d4;strokeColor=#82b366;" vertex="1" parent="1">
          <mxGeometry x="250" y="350" width="120" height="60" as="geometry" />
        </mxCell>
        <mxCell id="cirKSVXsWCPnHdK5_3kZ-18" style="edgeStyle=orthogonalEdgeStyle;rounded=0;orthogonalLoop=1;jettySize=auto;html=1;entryX=0.5;entryY=1;entryDx=0;entryDy=0;" edge="1" parent="1" source="cirKSVXsWCPnHdK5_3kZ-7" target="cirKSVXsWCPnHdK5_3kZ-17">
          <mxGeometry relative="1" as="geometry" />
        </mxCell>
        <mxCell id="cirKSVXsWCPnHdK5_3kZ-23" style="edgeStyle=orthogonalEdgeStyle;rounded=0;orthogonalLoop=1;jettySize=auto;html=1;entryX=0;entryY=0.5;entryDx=0;entryDy=0;" edge="1" parent="1" source="cirKSVXsWCPnHdK5_3kZ-22" target="cirKSVXsWCPnHdK5_3kZ-21">
          <mxGeometry relative="1" as="geometry" />
        </mxCell>
        <mxCell id="cirKSVXsWCPnHdK5_3kZ-7" value="Model" style="rounded=1;whiteSpace=wrap;html=1;fillColor=#e1d5e7;strokeColor=#9673a6;" vertex="1" parent="1">
          <mxGeometry x="480" y="350" width="120" height="60" as="geometry" />
        </mxCell>
        <mxCell id="cirKSVXsWCPnHdK5_3kZ-12" value="" style="edgeStyle=orthogonalEdgeStyle;rounded=0;orthogonalLoop=1;jettySize=auto;html=1;entryX=0;entryY=0.5;entryDx=0;entryDy=0;" edge="1" parent="1" source="cirKSVXsWCPnHdK5_3kZ-2" target="cirKSVXsWCPnHdK5_3kZ-11">
          <mxGeometry relative="1" as="geometry">
            <mxPoint x="145" y="380" as="sourcePoint" />
            <mxPoint x="250" y="380" as="targetPoint" />
          </mxGeometry>
        </mxCell>
        <mxCell id="cirKSVXsWCPnHdK5_3kZ-11" value="parser" style="rhombus;whiteSpace=wrap;html=1;fillColor=#f8cecc;strokeColor=#b85450;" vertex="1" parent="1">
          <mxGeometry x="170" y="355" width="50" height="50" as="geometry" />
        </mxCell>
        <mxCell id="cirKSVXsWCPnHdK5_3kZ-16" value="" style="edgeStyle=orthogonalEdgeStyle;rounded=0;orthogonalLoop=1;jettySize=auto;html=1;entryX=0;entryY=0.5;entryDx=0;entryDy=0;" edge="1" parent="1" source="cirKSVXsWCPnHdK5_3kZ-5" target="cirKSVXsWCPnHdK5_3kZ-14">
          <mxGeometry relative="1" as="geometry">
            <mxPoint x="370" y="380" as="sourcePoint" />
            <mxPoint x="480" y="380" as="targetPoint" />
          </mxGeometry>
        </mxCell>
        <mxCell id="cirKSVXsWCPnHdK5_3kZ-14" value="resolver" style="rhombus;whiteSpace=wrap;html=1;fillColor=#f8cecc;strokeColor=#b85450;" vertex="1" parent="1">
          <mxGeometry x="400" y="355" width="50" height="50" as="geometry" />
        </mxCell>
        <mxCell id="cirKSVXsWCPnHdK5_3kZ-17" value="Viewer" style="rounded=1;whiteSpace=wrap;html=1;fillColor=#fff2cc;strokeColor=#d6b656;" vertex="1" parent="1">
          <mxGeometry x="480" y="230" width="120" height="60" as="geometry" />
        </mxCell>
        <mxCell id="cirKSVXsWCPnHdK5_3kZ-20" style="edgeStyle=orthogonalEdgeStyle;rounded=0;orthogonalLoop=1;jettySize=auto;html=1;entryX=0;entryY=0.5;entryDx=0;entryDy=0;startArrow=classic;startFill=1;" edge="1" parent="1" source="cirKSVXsWCPnHdK5_3kZ-19" target="cirKSVXsWCPnHdK5_3kZ-17">
          <mxGeometry relative="1" as="geometry" />
        </mxCell>
        <mxCell id="cirKSVXsWCPnHdK5_3kZ-19" value="UI Config" style="rounded=1;whiteSpace=wrap;html=1;fillColor=#f5f5f5;strokeColor=#666666;fontColor=#333333;" vertex="1" parent="1">
          <mxGeometry x="25" y="230" width="120" height="60" as="geometry" />
        </mxCell>
        <mxCell id="cirKSVXsWCPnHdK5_3kZ-21" value="Netlist" style="rounded=1;whiteSpace=wrap;html=1;fillColor=#dae8fc;strokeColor=#6c8ebf;" vertex="1" parent="1">
          <mxGeometry x="700" y="350" width="120" height="60" as="geometry" />
        </mxCell>
        <mxCell id="cirKSVXsWCPnHdK5_3kZ-24" value="" style="edgeStyle=orthogonalEdgeStyle;rounded=0;orthogonalLoop=1;jettySize=auto;html=1;entryX=0;entryY=0.5;entryDx=0;entryDy=0;" edge="1" parent="1" source="cirKSVXsWCPnHdK5_3kZ-7" target="cirKSVXsWCPnHdK5_3kZ-22">
          <mxGeometry relative="1" as="geometry">
            <mxPoint x="600" y="380" as="sourcePoint" />
            <mxPoint x="690" y="380" as="targetPoint" />
          </mxGeometry>
        </mxCell>
        <mxCell id="cirKSVXsWCPnHdK5_3kZ-22" value="netlist generator" style="rhombus;whiteSpace=wrap;html=1;fillColor=#f8cecc;strokeColor=#b85450;" vertex="1" parent="1">
          <mxGeometry x="630" y="355" width="50" height="50" as="geometry" />
        </mxCell>
        <mxCell id="cirKSVXsWCPnHdK5_3kZ-27" value="" style="shape=image;verticalLabelPosition=bottom;labelBackgroundColor=default;verticalAlign=top;aspect=fixed;imageAspect=0;image=data:image/png,iVBORw0KGgoAAAANSUhEUgAAAeIAAADyCAYAAACRSMaMAAAMPmlDQ1BJQ0MgUHJvZmlsZQAASImVVwdYU8kWnluSkEBooUsJvQkiNYCUEFroHcFGSAKEEmMgqNjRRQXXLiJgQ1dFFKyA2BHFwqLY+2JBRVkXC3blTQrouq9873zf3Pvff87858y5c8sAoHaCIxLlouoA5AkLxHEhAfSxKal00lOAACrQBFrAlcPNFzFjYiIAtKHz3+3ddegN7YqDVOuf/f/VNHj8fC4ASAzE6bx8bh7EBwDAq7kicQEARClvPrVAJMWwAS0xTBDiRVKcKcfVUpwux3tkPglxLIjbAFBS4XDEmQCoXoI8vZCbCTVU+yF2EvIEQgDU6BD75uVN5kGcBrEN9BFBLNVnpP+gk/k3zfRhTQ4ncxjL5yIzpUBBviiXM/3/LMf/trxcyVAMK9hUssShcdI5w7rdzJkcLsUqEPcJ06OiIdaE+IOAJ/OHGKVkSUIT5f6oITefBWsGdCB24nECwyE2hDhYmBsVoeDTMwTBbIjhCkGnCQrYCRDrQbyInx8Ur/DZJJ4cp4iFNmaIWUwFf5YjlsWVxrovyUlkKvRfZ/HZCn1MtSgrIRliCsQWhYKkKIhVIXbMz4kPV/iMKcpiRQ35iCVx0vwtII7jC0MC5PpYYYY4OE7hX5qXPzRfbFOWgB2lwPsKshJC5fXB2rgcWf5wLtglvpCZOKTDzx8bMTQXHj8wSD537BlfmBiv0PkgKgiIk4/FKaLcGIU/bsbPDZHyZhC75hfGK8biSQVwQcr18QxRQUyCPE+8KJsTFiPPB18OIgALBAI6kMCWDiaDbCDo7Gvqg1fynmDAAWKQCfjAQcEMjUiW9QjhMR4UgT8h4oP84XEBsl4+KIT812FWfnQAGbLeQtmIHPAE4jwQDnLhtUQ2SjgcLQk8hozgH9E5sHFhvrmwSfv/PT/EfmeYkIlQMJKhiHS1IU9iEDGQGEoMJtriBrgv7o1HwKM/bM44A/ccmsd3f8ITQhfhIeEaoZtwa5KgWPxTlpGgG+oHK2qR/mMtcCuo6YYH4D5QHSrjOrgBcMBdYRwm7gcju0GWpchbWhX6T9p/m8EPd0PhR3Yio2Rdsj/Z5ueRqnaqbsMq0lr/WB95runD9WYN9/wcn/VD9XnwHP6zJ7YI24+1Yyexc9gRrAnQseNYM9aBHZXi4dX1WLa6hqLFyfLJgTqCf8QburPSSuY71Tn1On2R9xXwp0nf0YA1WTRdLMjMKqAz4ReBT2cLuY4j6c5Ozi4ASL8v8tfXm1jZdwPR6fjOzf8DAJ/jg4ODh79zYccB2OsBH/9D3zkbBvx0KANw9hBXIi6Uc7j0QIBvCTX4pOkDY2AObOB8nIE78Ab+IAiEgWiQAFLARJh9FlznYjAVzATzQAkoA8vBGlAJNoItYAfYDfaBJnAEnARnwAVwCVwDd+Dq6QEvQD94Bz4jCEJCqAgN0UdMEEvEHnFGGIgvEoREIHFICpKGZCJCRILMROYjZchKpBLZjNQie5FDyEnkHNKF3EIeIL3Ia+QTiqEqqBZqhFqho1AGykTD0QR0ApqJTkGL0AXoUrQCrUF3oY3oSfQCeg3tRl+gAxjAlDEdzBRzwBgYC4vGUrEMTIzNxkqxcqwGq8da4H2+gnVjfdhHnIjTcDruAFdwKJ6Ic/Ep+Gx8CV6J78Ab8Tb8Cv4A78e/EagEQ4I9wYvAJowlZBKmEkoI5YRthIOE0/BZ6iG8IxKJOkRrogd8FlOI2cQZxCXE9cQG4gliF/ERcYBEIumT7Ek+pGgSh1RAKiGtI+0iHSddJvWQPigpK5koOSsFK6UqCZWKlcqVdiodU7qs9FTpM1mdbEn2IkeTeeTp5GXkreQW8kVyD/kzRYNiTfGhJFCyKfMoFZR6ymnKXcobZWVlM2VP5VhlgfJc5QrlPcpnlR8of1TRVLFTYamMV5GoLFXZrnJC5ZbKGyqVakX1p6ZSC6hLqbXUU9T71A+qNFVHVbYqT3WOapVqo+pl1ZdqZDVLNabaRLUitXK1/WoX1frUyepW6ix1jvps9Sr1Q+o31Ac0aBqjNaI18jSWaOzUOKfxTJOkaaUZpMnTXKC5RfOU5iMaRjOnsWhc2nzaVtppWo8WUctai62VrVWmtVurU6tfW1PbVTtJe5p2lfZR7W4dTMdKh62Tq7NMZ5/OdZ1Puka6TF2+7mLdet3Luu/1Ruj56/H1SvUa9K7pfdKn6wfp5+iv0G/Sv2eAG9gZxBpMNdhgcNqgb4TWCO8R3BGlI/aNuG2IGtoZxhnOMNxi2GE4YGRsFGIkMlpndMqoz1jH2N8423i18THjXhOaia+JwGS1yXGT53RtOpOeS6+gt9H7TQ1NQ00lpptNO00/m1mbJZoVmzWY3TOnmDPMM8xXm7ea91uYWERazLSos7htSbZkWGZZrrVst3xvZW2VbLXQqsnqmbWeNdu6yLrO+q4N1cbPZopNjc1VW6ItwzbHdr3tJTvUzs0uy67K7qI9au9uL7Bfb981kjDSc6RwZM3IGw4qDkyHQoc6hweOOo4RjsWOTY4vR1mMSh21YlT7qG9Obk65Tlud7ozWHB02unh0y+jXznbOXOcq56suVJdglzkuzS6vXO1d+a4bXG+60dwi3Ra6tbp9dfdwF7vXu/d6WHikeVR73GBoMWIYSxhnPQmeAZ5zPI94fvRy9yrw2uf1l7eDd473Tu9nY6zH8MdsHfPIx8yH47PZp9uX7pvmu8m328/Uj+NX4/fQ39yf57/N/ynTlpnN3MV8GeAUIA44GPCe5cWaxToRiAWGBJYGdgZpBiUGVQbdDzYLzgyuC+4PcQuZEXIilBAaHroi9AbbiM1l17L7wzzCZoW1hauEx4dXhj+MsIsQR7REopFhkasi70ZZRgmjmqJBNDt6VfS9GOuYKTGHY4mxMbFVsU/iRsfNjGuPp8VPit8Z/y4hIGFZwp1Em0RJYmuSWtL4pNqk98mBySuTu8eOGjtr7IUUgxRBSnMqKTUpdVvqwLigcWvG9Yx3G18y/voE6wnTJpybaDAxd+LRSWqTOJP2pxHSktN2pn3hRHNqOAPp7PTq9H4ui7uW+4Lnz1vN6+X78Ffyn2b4ZKzMeJbpk7kqszfLL6s8q0/AElQKXmWHZm/Mfp8TnbM9ZzA3ObchTykvLe+QUFOYI2ybbDx52uQukb2oRNQ9xWvKmin94nDxtnwkf0J+c4EW/JHvkNhIfpE8KPQtrCr8MDVp6v5pGtOE0zqm201fPP1pUXDRbzPwGdwZrTNNZ86b+WAWc9bm2cjs9Nmtc8znLJjTMzdk7o55lHk5834vdipeWfx2fvL8lgVGC+YuePRLyC91Jaol4pIbC70XblyELxIs6lzssnjd4m+lvNLzZU5l5WVflnCXnP919K8Vvw4uzVjaucx92YblxOXC5ddX+K3YsVJjZdHKR6siVzWupq8uXf12zaQ158pdyzeupayVrO2uiKhoXmexbvm6L5VZldeqAqoaqg2rF1e/X89bf3mD/4b6jUYbyzZ+2iTYdHNzyObGGqua8i3ELYVbnmxN2tr+G+O32m0G28q2fd0u3N69I25HW61Hbe1Ow53L6tA6SV3vrvG7Lu0O3N1c71C/uUGnoWwP2CPZ83xv2t7r+8L3te5n7K8/YHmg+iDtYGkj0ji9sb8pq6m7OaW561DYodYW75aDhx0Pbz9ieqTqqPbRZccoxxYcGzxedHzghOhE38nMk49aJ7XeOTX21NW22LbO0+Gnz54JPnOqndl+/KzP2SPnvM4dOs8433TB/UJjh1vHwd/dfj/Y6d7ZeNHjYvMlz0stXWO6jl32u3zySuCVM1fZVy9ci7rWdT3x+s0b42903+TdfHYr99ar24W3P9+Ze5dwt/Se+r3y+4b3a/6w/aOh27376IPABx0P4x/eecR99OJx/uMvPQueUJ+UPzV5WvvM+dmR3uDeS8/HPe95IXrxua/kT40/q1/avDzwl/9fHf1j+3teiV8Nvl7yRv/N9reub1sHYgbuv8t79/l96Qf9Dzs+Mj62f0r+9PTz1C+kLxVfbb+2fAv/dncwb3BQxBFzZL8CGGxoRgYAr7cDQE0BgAb3Z5Rx8v2fzBD5nlWGwH/C8j2izNwBqIf/77F98O/mBgB7tsLtF9RXGw9ADBWABE+AurgMt6G9mmxfKTUi3AdsivqanpcO/o3J95w/5P3zGUhVXcHP538By/R8cC1mfQwAAACKZVhJZk1NACoAAAAIAAQBGgAFAAAAAQAAAD4BGwAFAAAAAQAAAEYBKAADAAAAAQACAACHaQAEAAAAAQAAAE4AAAAAAAAAkAAAAAEAAACQAAAAAQADkoYABwAAABIAAAB4oAIABAAAAAEAAAHioAMABAAAAAEAAADyAAAAAEFTQ0lJAAAAU2NyZWVuc2hvdIUh4PsAAAAJcEhZcwAAFiUAABYlAUlSJPAAAAHWaVRYdFhNTDpjb20uYWRvYmUueG1wAAAAAAA8eDp4bXBtZXRhIHhtbG5zOng9ImFkb2JlOm5zOm1ldGEvIiB4OnhtcHRrPSJYTVAgQ29yZSA2LjAuMCI+CiAgIDxyZGY6UkRGIHhtbG5zOnJkZj0iaHR0cDovL3d3dy53My5vcmcvMTk5OS8wMi8yMi1yZGYtc3ludGF4LW5zIyI+CiAgICAgIDxyZGY6RGVzY3JpcHRpb24gcmRmOmFib3V0PSIiCiAgICAgICAgICAgIHhtbG5zOmV4aWY9Imh0dHA6Ly9ucy5hZG9iZS5jb20vZXhpZi8xLjAvIj4KICAgICAgICAgPGV4aWY6UGl4ZWxZRGltZW5zaW9uPjI0MjwvZXhpZjpQaXhlbFlEaW1lbnNpb24+CiAgICAgICAgIDxleGlmOlBpeGVsWERpbWVuc2lvbj40ODI8L2V4aWY6UGl4ZWxYRGltZW5zaW9uPgogICAgICAgICA8ZXhpZjpVc2VyQ29tbWVudD5TY3JlZW5zaG90PC9leGlmOlVzZXJDb21tZW50PgogICAgICA8L3JkZjpEZXNjcmlwdGlvbj4KICAgPC9yZGY6UkRGPgo8L3g6eG1wbWV0YT4KrNSKnwAAABxpRE9UAAAAAgAAAAAAAAB5AAAAKAAAAHkAAAB5AAAlVvw2Lq0AACUiSURBVHgB7J0FeBRHG8dfYrgESPDgwd0DAZpiBYpLgbZogRT7CMUhBLciwaFAcS1WCC7BigT3BAsprgkugXz7znU3e5pLckcC9x+e527kndnZ3+bhfzPzzmySNM6uUSQFOzs7SpYsmRRLQq9fv+IsJTg4OIh4ZGSkkseRtOmcqX2nriLvzKkTFLh3l1a5nOD6GV1cKSoqih49fECfPn2Si0x+Ozg6Unrn9JRU6hf3KfzZM/r48aPJOl9yYdKkyejdu7d6t8DPhhm+f/9er8zJyYn4uZjLVK8BZIAACIAACCQogSSyEMelF+UreJCHZzVR9UDgHjp14nhcmkEdEAABEAABELBZAnES4tx58tE339aiNGnTKuBWLFlID6XRLgIIgAAIgAAIgID5BOIkxJ7VvahM2QrKVa5dDaYtm9YraURAAARAAARAAATMIxAnIS5StDgVL1manj+PoCuXLtL1ayHmXQ1WIAACIAACIAACWgTiJMRaLSABAiAAAiAAAiAQZwIQ4jijQ0UQAAEQAAEQiD8BCHH8GaIFEAABEAABEIgzAQhxnNGhIgiAAAiAAAjEnwCEOP4M0QIIgAAIgAAIxJkAhDjO6FARBEAABEAABOJPAEIcf4ZoAQRAAARAAATiTCDeQlylb+k4XfzQxFNxqodKIAACIAACIPA1EYAQf01PE/cCAiAAAiDwxRGwmBAHB9w06+YL1Mst7DAiNgsXjEAABEAABL5yAhDir/wB4/ZAAARAAAQSNwEIceJ+PugdCIAACIDAV04AQvyVP2DcHgiAAAiAQOImYFUhzpilEJWr0ZMyZHEnp2RpyM7ekc5fGUbhz88R1ogT9x8GegcCIAACIPB5CFhNiFOmcaXWv+2iJEnstO7k/JUR9DT8BIRYiwoSIAACIAACtkrAakJcuf4gKlKhleAacnoTnTm4gF4/f0S5a7hKeVEQYlv9i8N9gwAIgAAIaBGwmhDXa/cHZctbkT59+kjz/UpJ2hslLoztS1r8kQABEAABELBxAlYT4uY9NpCzaz56+zqcloz1VDBDiBUUiIAACIAACIAAWVGIN0pCnJdev3xMy8Z/o6CGECsoEAEBEAABEAABCDH+BkAABEAABEAgIQlYbUTcus8OSpUuK0bECfl0cW0QAAEQAIFET8AqQuzgmIw6+AaJmw9/dJPWTGuggMDUtIICERAAARAAARCwztR0obLNyLPhMIH35qXdtGtlbwU1hFhBgQgIgAAIgAAIWEaI7eycKH1UU3J0SkHpXPKQa/ZiAm3kh7fSaLghvQy/q6CGECsoEAEBEAABEAABywixk6MzVSqzWAvnrSv7aNeqPvTp4wetfAixFg4kQAAEQAAEbJyARdaIeUTsYt9ajIhdshWmNOndBNZ3b57Tav/69PbVMwUzhFhBgQgIgAAIgAAIWGZEzByDA24qOD0b+FKhcs1F+urZLbTvr4FKGYRYQYEICIAACIAACFhHiFOkdqEf++0VeJ89vE5rpzdSUEOIFRSIgAAIgAAIgIB1hJi5tum7h/gNTDhZC39lIAACIAACIGCcgEXWiLl59dQ0p5v3wBGXzAEBBEAABEAABEwRsLoQv3n1lJaOq6b0AVPTCgpEQAAEQAAEQMB6U9MNf1lKmdxKEu8lXjiinIIaQqygQAQEQAAEQAAErCfEXs3HU77idQXijXNb08Pb50UcQoy/OhAAARAAARCIJmC1qWk3d0+q89Ms5UqvXzykd29e0I0H0+nlqxt0aOIppQwREAABEAABELBVAlYTYgbqUW8gFS7fkuzs7BW+F66MoCfhJyDEChFEQAAEQAAEbJmAVYWYwdo7JJVO2spBqdJmpmQp0pFTrjCKjHwBIbblvzrcOwiAAAiAgELA6kKsXOm/CNaIdYkgDQIgAAIgYMsEIMS2/PRx7yAAAiAAAglOAEKc4I8AHQABEAABELBlAhBiW376uHcQAAEQAIEEJwAhTvBHgA6AAAiAAAjYMgGLCXFsIWIfcWyJwR4EQAAEQOBrJAAh/hqfKu4JBEAABEDgiyEQbyEuW05zjvSJoKAv5qbRURAAARAAARBILAQgxInlSaAfIAACIAACNkkAQmyTjx03DQIgAAIgkFgIQIgTy5NAP0AABEAABGySAITYJh87bhoEQAAEQCCxEIAQJ5YngX6AAAiAAAjYJAEIsU0+dtw0CIAACIBAYiEAIU4sT8LG+1G0fDUq/019QeHkgW109sheEU/vmoUatfcR8ds3gmnn2vlmkXLJ4kZV67eibHncKWmyFKLOheP7advKOWbVh1H8CLTpNVxw//D+HS2dMkRprEbT9uSWr7BI/71kGj2+969ShggI2CoBCHE8n7xL6lTknCoFvX3/gcKePItna7ZbvcvQaeRRu6kAcCIwgKYP6SzipSrXpP+NXyTi4U8eUq+GpUTc1Eftlr9Qq+7DKEmSJFpmt0IukG+H2lp5CZnIlkv6kZAiBYU/fkBPH95LyK5Y/NqLDt5W+Letkk1pf8r6IErvmlWkZw3zpmN7/lbKEAEBWyUAIY7nk98xoDsVyZ6FIl6/oSL9RsWzNdutbikhTp4yNc3ceoHs7R0EzJcRz+j+vzdE/PyxfbTxzymJBvKCfTfJwdGJQoPP0bCO3yWaflmiIxBiS1BEG7ZCAEIczyd9dbIfJXdypBM3wqjR5LnxbM12q1tKiEt71qZeYxcKkPu3rKSF435LtFAhxBgRJ9o/TnTssxKAEMcDt3PKFHR+/GDRwh97D9Pw9Vvj0ZptV7WUEDdo24ua/tJPwBzbvRldOXMk0YKFEEOIE+0fJzr2WQlAiGOJu13VipRRWhfmkDdTRvq+dDERPxxyg4Ku3xJx/vgUFUX+2/fRx0+fRF6TciUpj2tGuvnoCa07flqxU0eSOjpQ91rVKIn079qDR7TxxFmlmPOTOTrSkas36PbTcGpWoRRVLZiPHO3t6VTovzRh8y56/uatYq8bYbvmFUtTlQJ5qViOrPT4xUs6HXqbpmzdQy/evtM1V9INGjak0qVLK+nVq1bR5cuXlbSlIvER4iad+lLa9BlFV/IXL0+89sohaF8AvXoRvW4fcjaIDu/4S5TpfrCjWOmqdShn/qLkmDQpsWMYr1Uf2rZW11Skk9jZCeeySjUbU8YsOShVGmd6EfGU/r1+ic7+s8fg2mfewtIzq/+D0l61+q2J23n1IkLq62YlnyOnDu0U7ciZyZKnpGZdBojkgYBVFHb1olwkvl2y5qTaLTqJ+NYVswyuOVdv0IZyFyxOTx7cob8XTxP9/kbKKyXNIjglTUb3w27Q2rljidfSdUPugiWE81ueQiUojXNGenA7lILPHKVNi6bSp08fdc0JU9N6SJABAkYJQIiNotEvYOefW9NGkp2OE5C+pUaI3XpEe4tu9OlCZfO40at376lAn+GGqpBf03rU6RsPUcbCOm1HoIhnTJ2SzowdJOIXbt+lglkzk4P0H7g6vJGcxbxG+9O/BhzGimbPSsu7t6MMqVKqq4j4uw+R1Hrmn3TsWqheGWdsDggg9wIFlLJp/v40c/p0JW2pSHyEeMG+UGmt1THGrhhy1mKB6+e/mlgkDYVrF07SuJ7Nib1/1WHe7quKN7Y6X45fPR8k1WtBkR/ey1nUwnsQ1WvTTUmbipyWhHjqgPaKCf+4GLNsn0hvXDiZNiycpJRxxLNuC+o0SLP+zY5u/CNCN4xfeZAy58hDb9+8ElP2vw6frWtCUdIPx3ZVc2jl/9xnDH3buK1Wnpx4/uwxjf61sbIOL+dDiGUS+AaBmAlAiGNmpFjwWvD0ti0Ub1CvIu5iRBop/ee150KwYseRUGnkO3LDNiXPt0ld6uxVWaQL9x2pN3pl7+uTYwYIkX/26jUVHzCGoqRRNYe6JYvQvE6tRZw/eLR96c49uh/+nKoXdldEmUflLactUOw4Uq1QflrerZ2Sx4J7++kzqlWsEKVOnkzkv5BG0sWk60V+1B/ZfC4h7jzUnyrXbib6wyPZGUM1XtMlPL4lnwlLRL4xr+luI+dSugyuwiZT9lzS6FgTZ+F99/a1yOeP88cCpZGgv5LmyNQNJ8nZJbPIY9ur54LoY2QkFShZgZKl0Mx8XD71jxBjdcWFgbfI3sFBjGYf/HuTHt69RSlSpSb3ElI9Sdw56Ao/30v9H7srzeQvVk78Lb1/+4ZCQ84r+Rw5vH0dBf69TMmzpBDz/UmTLsKhja/95OFdcnRKShnYm1n6kdnOM7tyXRbrCt82EGkW6WsXT1HEkweUSxohZ8yssXv98jn9WreIEHG5ojEhnrzuOGXIlE2YzRzahY7v2yJXwTcI2CwBCHE8Hn3wpGGUMqkTnbl1m+pP1B9dqJtm4VvY5UeR1XHeMtpxTnt6d1HXn6hG0YKivO2cJVrCPqJZfepQvZIoYxFuMmWecA7jDP5xwP3gUTr/IMjVc6iw4w+ejj43bpAQ3A+SyHIfL96O3iYzqsX30uinorDvu3wDrTxyQqkrRz6XELOoscczhzevXggxlPuQKq2ziL5/95ZYOEyF5l0HKmL3WwsPeiQJpLHA25xa9/ATxTzVO7xzfWUEy/3hESTvR+YwyrsR8ShXDt1GzCF2BuO9yerAU82T1h5VxIa3W/EPCEMhNmvElhRiuS8By2fSmtlj5CQx52adB9Ciif1FHo+ex604IH4svH39kga3raG17/eXwVOpynfNhe2O1X/Qiul+SlvJpR8l7Ln+8WMkvXn5Qsl3SpZcTINzBk/Js7gjgICtE4AQx/EvIHWypHT5d19Re2HgEfL9y/Qv+zTS6PPSRI1ILgj8h4b9FT11yNufeBsUh3Nhd6juhFkiLn9s6etNJXNqRh/9V26k5YejBYFtdg/qKU1XZxLm6tH2722a0A+Vyoh8diRjhzJ1yOacjo6N7CuyuE1uWzd8LiHWvW5c07ER4tnbL0uj2DSS+H4g7+8K6Ym8eg8zj9x4BGdOqNW8E/GBFhxm+3Wjo7v1uXJZQgrxhaADNLF3K+6G0dDffw0VLqOZxeHp55Bzx7VsWVTn7QwR69zGZiu0KiABAiBgkACE2CCWmDO/LVqAFnf9WRh2nr+Ctp65GGMlYyPovYN7kXsWzXSq5/DJwqFL3Zhcj9dz8/n4KVPWss2Mdi2oUdkSIllCmmJ+8vKV5FAWva5891kElR86QTbX+pbb3nsxmH6erZkCVhu4uLqSS8aMSlZoaCi9fh093asUJJJIbIRYnj7lURuPdpMkiV53lw8DcZecvzg8uH2T+v1QResuefRbtW5LMU3rmtVNGdHzyDJT9tzCdpm/L+1au0CrnpxISCHu07yi1uhW7pP6Wz1tz97nhvjkKVRS7IU2tLasbgtxEAAB4wQgxMbZmCwZ3KgOedfwFDay+JmsIBVu7fcrFXfLpuWwVbt4IVrQWTNlveboKfJZtk6rGfXIe+2xU9R7qXY5G6/r/QtVyJtLrB3LDmL1SxWlOR1Nj3jUF2IP7e6L1qizvsi4uUKsnuo150ZfPQ8X66CybfUGP1Kbnn7Eo0JTYdWMEbRt1VyDJgklxOx7oF4HNtg5KVPun7Fy3fwO1XNqLSnoliMNAiBgmACE2DCXGHM3+HSmcnlyEnsr55dGqeYE9VovTyHztiFew+X9yDzaLT5gtBBpdVteRQrQEm/NyLvn4rW0PuiMuljEj4/sR1md04qRMP8o4DCy+ffUvppm/VdkxPAx7u+dNGOn9npnDFUSZbG5QlysQnX6bdJycQ/PHt2n88cDTd4PO2RtWTZD2BSQHLIGzlgn1k454/H923RH2u4U/vShtOb5UXJiykF8djaH1bNG0dYVs0Vc90MWOnNO1lL/cIiv1zQ7pXWukV+3O3ppecaA1+WP7tmkV67O4BHxn9LaMtZ81VQQBwHzCECIzeOkZ3VZWu9lr2N2fqo9TvMftJ6RToba+5kdtvK6utCgRrWFFa8Z89qxbhjUsDb9WrOqyOa1Y15DVgf2tj49dqDICrpxixpPnifi8uibp6llcVbX+1rj5goxTx/PDLggMPC0Kx/+YW7wnbuZ8hbR7K02tAZco0k7+slntGjOUkKcJWc+Grdc80OJ9+6unz9Rq7vftepKP3TT+CCYs32pS013rfqGEnN3BgvPcXae61pb40hoyA55IAAC8SMAIY4DPz544/oUjTPOCsnJqZ8BJydDzfI+3rPSCJgD1+MDNtizmbchlR0y3lAVZdqZC2uOnU6X79zXshvQoJY4BIQz289dSrvOXxHle4dI686ZXYm3JhWSRt9xDd169CAPDw+l+swZM+ifw4eVdGKLmCvE3O+F+6UtSJJnLx9w4dNUsxZszv2wgLOQRzx9RD0blNSr0nXYDOKDPjiYI8Rh1y7R0HY19dpRZ6ROl4FmbDknsvZvXkELx2uc7GSbjgMnUdV6P4ikpYRY3nfMo9yOXrkx7SzDxjcIWJgAhDgOQPmAjO0Duomaozdup9m7D5rdinw2tbpCM//5dPTqTXWWEr84YQilTaFZh5y+I5DGSwd9yME1bWo64vcb8Q8D3ntcrL9mFMblf0j7jr+T9h9zMOQAJgqkDz4YhLc9GQtfs9c0b83J4pZX3PqE//1AF08Yfo78Ygb1wRyytzXvx+3klUfrZCleM56z/YrYY8wNmxJiWdD5UIwe32uc7Yw9B86Xp4p19ydz2axtlyhl6rQcFW+uiulAD3NGxOqDPPZsWExLJml+RIqL6HzoMtIpRhIEQMAEAQixCTjGitRCHPb4KXVfvEaaMr5r8EAM3TbktzXJ+XzARtOpf8hJrW8+0vLaFD8lj9/w1HXBSjoYfF14Wa/u0YFc0mj23g5YtYmWHYreXtK6cjma0KqRqPvo+Qvp9KxFymiaxbdS/tz0q3RsJn/n6+1ntO9fsxC75S9CI//cKRjxFqbl03xp74Zoz/E8hUtK51b3pyJlqtBEn9aKUI9YuINyuhcV9Y7s2kDLpg4lfssTHzM5dM4m6UARF+WZmRLiUYt3U468hYTtrr8WSmvJho+mlBuTfwBwev6Y3nRw6xpxEIfPxCXSNqNoj25LjYh5LzVfk9/nzA5eB7euFnuMxYEgUh/Eu6I79KFKNRqJNeQFY/vIXcU3CIBALAhAiGMBSza1l4QsRDpEg0eiuuFBxHMqM9jwNDPbjmnZgH72rCCq8eEclXx/pzvPwnWbEenK7nlodc+OemVcT33M5tRt++j3gN16doeG+VAulwxKPjuE8eiXDyGRQ0yvb/yahZgZtO0zlrwaa5zhOM2Cw6NfHuHJW5g4Xz1iLliykuSs9RdnK0GuwxnsDMXixcGUEBcp60n9pq4SdrofJw9up2kDtZ+97hGZPGXMW6g4qK9vKSHmdstWr0fdpcNL5OvI1+IpfXUen38NIWY6CCAQewIQ4tgzEzV4G9LE1o3FyJTXeeXAo9VW0xfKSb1vPiGLvac5LDl4jAatNv5idJ+60vGOdb2EbYNJc2ipd1tlmpozX0pe1zwtzi+XMBTSSVPafKhHnRKFDRVTyP2HNEeqz9umjIVNmzdTwUKaURvbTJ08mWbPmmXMPMHzeQTboG1P0Q9z9sqyYYlKXuTtN0vZB6y+CR4pX790imb5dtU6IatG0/bUqvswvTOub1+/QkunDFGE2tT2JfnaLboOpmy53bWEzZAQ29nZU59Jy6hoOY3zntzPu6FXadvKOcTrxBxYwLm+bpCn4vmUrC61CugWG03z6WJ9p6yU9kbn0rPhHy53b12l5VN9lRkDPSNkgAAImCQAITaJx7KFPMI6Mvw3yp4+ndj2xGu6b6X/6I2FldLUs6f0tiT10ZX5MrmIbVNHrt0U51kbq6vO573IhbJlpvyS8xaL9y1pOv2qJML8AgqEaALsgFWwlAdll0SRtySxE5XuW46iraUjRKXzmQuWqkS5ChSnuzdD6OzRvVpryWpbS8ZZGPnHQ2TkB/GWJ/Zq/hyBZwnci5eTPMbLSMdThostW9cvnf4s9/w57g/XAIGEIgAh/ozk1Wc7s6c1e06bCuxhzZ7W1x88pmojp5gyRRkIgAAIgMAXSgBCbOUHx+c582EbP3mWJ34nMQeeEvYa5W/yyg7SdHeo/whhw4d48GEeCCAAAiAAAl8fAQixFZ9pHteMdMC3t9YVeJtRrbEz6F54hFa+bqJ07hz0d5+uItvQix507ZEGARAAARD4MglAiC3w3OpldaUxxaOdXwadC6aAuw/Fixj4hQwc2Dv5+PVb0sh2DVVNn9agvborHat70PBm9USWr/RaxF7ZXZViuX0lQydirD86ZkpSbV9iu+G9tIoxIiAAAiAAAhYlACE2EyeLFYurblCL2ImnEVRWElkOxsQysdt3PK45vUn3PpEGARAAARCwDgEIsZlcz9bx1BNXtajOuXaLZl8LI+98btQ1X07Rqq4Yfwn2ZuKAGQiAAAiAgIUIQIjNBMlCzEEWV0OiKjdlSIy/JHv5PvANAiAAAiBgfQIQYjMZq8V1Tdg9auGWRdSUR8K6zXzp9rr3gzQIgAAIgIB1CECIY8FVLa5czZgIy01+6fbyfeAbBEAABEDAegQgxNZji5ZBAARAAARAIEYCEOIYEcEABEAABEAABKxHAEJsPbZoGQRAAARAAARiJAAhjhERDEAABEAABEDAegQgxNZji5ZBAARAAARAIEYCEOIYEcEABEAABEAABKxHAEJsPbZo+QsjYO9kT81n16Ekdkm0er5j+EF6Gqr/ko7G/jUpWZqkWraHZp6kf0/c08pDAgRAAARMEYAQm6JjpKxVpbLUpko5vdIg6aUOw9dv1cs3lVHZPQ+18ihLn6KiqM+y9fTh40dT5hYpS4hrWqTjVm7EMYUjdQ7QvKRDfalNPnvo9un76iwR997dmuzstUV7/9QgurApRM8WGSAAAiBgjACE2BgZE/mb+nShMrnd9Cx2nLtMHect08s3lTGvU2uqW7KIEOKcPYdSlCTI1g5xuaZbBmdK5uRIT1++oscvXlm7iwnSvlqIbx27S8E7boh+cPz96w96fcrtkZ0cktpTKtcU5NG1tCiHEOthQgYIgEAMBCDEMQAyVFy9sDvlzOgsivJlcqX21SqKuN+6AJq/7x9DVYzmHRn+G+WQRO7uswgqP3SCUTtLFsTlmqHTRpKDnR3tvnCF2s1ZasnuJJq21EJ8fNE5Clp83qy+pc2ain5c3lDYQojNQgYjEAABFQEIsQpGXKKdvvEgv6aa9wbXGDONrtx9EKtm+n1fk7KkS0PHpbc3rTxyIlZ142oc22vmdslAB4f5iMtN2LyLpu0IjOulE3U9CHGifjzoHAh8tQQgxPF8tAs6/0i1ixcSU8tuPYbEs7XEWZ3XxCe2aSw613TqH3TsWmji7Gg8ewUhjidAVAcBEIgTAQhxnLBFVzo5uj9lSpuGwh4/JQ+/SdEFRmItKpYmtwzptUqjKIqmbQ806KjlaG9Pvep8I+wDL4fQz54VqHC2LHTgyjUau2kHlcnjRu2rVqScLulp6cHjtOrISfr46ZNW+7G9ZlJHB+pRq7rSRp0Shalg1kwiPWvXAXofGe1QdudpuNGRfMbUKamzVxVRN7s0/f5Bqvcg4jkdCr5Oa46eovDXb5Rr6EYcpPvuWbuakh3x+i0tCIzdtL9S2cwIhNhMUDADARCwKAEIcTxw8popr51y2HjiHHVftDrG1q5PGU4sdLohVy9fijTgMV0+b05a37uzrrlInwu7Q8XdsmmV+SxbJ0ROnRnba7JX9eqeHdVNGI2H3H9IXqP89cp9m9Qlnra3S6LtVSwbGqsnl5eVfmBs9OkiJylCEu0i/UYpaWtEIMTWoIo2QQAEYiIAIY6JkInycnly0gYfjUj2W7mRVhwOMmGtKZrd4QdyctAIcc1iBYVQPZE8kUsMGGOwbs/a1YnXdDm8ef+B9l++SjxClQNvd9pzIZhqSdPjLHpBN25R48nz5GLxHdtrlsqVg7rXih6N8tQ7B+7niRthIi5/7Dh3SU/41evmkdLoPFhaNz9+PZScU6YQ3ubsnLb51HnyXrhKbkbvm68/oEEtJZ+nw3la3JoBQmxNumgbBEDAGAEIsTEyZuT3/s6L+tT7Vlh6DPudwp48M6NWtInsiXxQmqptNX1hdIEqtsT7Z/IqUkCsQRfpO5JevH1HR0f0pezp0wmrkgPHiO1Ee4f0IvfMrsSj5LoTZqla0I6ac011jWzO6ejYyL4ia/LWvTR56x51scH4mbGDiKelWbgr+k4UPyDUhvwD5mPUJzp18191tlZcvm85c+bO/TT2751y0irfEGKrYEWjIAACMRCAEMcAyFTxyh4dyLNAXrG2m1uaWo5N4FEhbyPiMGXbXpoUYFjg5DVoHok2mjxX2J8eM4Bc0qSmM7duU/2Js0XeP359yC1jetp5/jJ1mLtM5Ol+mHtNdb2m5UuR/8/NRFbLaQvocMgNdbFe3F6arr/133T9vksh9NOsxXo25mQcH9mPsjqnVUx/nr2E9l4MVtLWiECIrUEVbYIACMREAEIcEyET5RcnDKG0KZJTTOudhppgB6rJPzYVRcYEjkXtpv8IMeXMQs2CzSFs+iiRN3XbPvo9YLfIk0e6ajtRoPow55oqcxGd2LqxOPmLE/l6+9HbDx90TfTSMhcumLf3MM3atT/Wh4BklrZ0pXByUtpmZzie5rZmgBBbky7aBgEQMEYAQmyMTAz5yaVTpq5O9hNWK/85QX1XbIihhnYxbwfibUEcjAlcsRxZaVv/bsKGp5t52tk9iyvtHdxL5PEImUfK6unjNjMXiXVkYaDzYc41darQ7kE9hddzbJyl2FGrs1dlraauP3hMiw8epT/3H/0sp4dpXdzMBITYTFAwAwEQsCgBCHEccfLpWst+bStqd1+0RvKaPhurlswRuF8kMRsmiRqfQ81T37wtqW3VCjS6RQNxrVzSkZg8SlRPHxfoM5xevXtvsC/mXFO3ouxxHRtnqSSS09hAydGqrbStKmXS6FEtt82CztPpNx890b1UgqchxAn+CNABELBJAhDiOD72oY2/oy7fVhG1Sw0cS49evIxVS7LAGfJylhuSz4TmvbdlBo8X2TPbt6SGZYqLqV521OIgTx+/ePOWCkkOXcaCOddU13VJnYpOjx0osuLqLMXbqzpUq0SNypUQR2RyY+uDzlDPxWvVl0oUcQhxongM6AQI2BwBCHEcH/m6//1CFfLloncfIilv72GxaoU9itmzmMPs3Qdp9MbtBuvLZ0KzkxI7K3Hgoyb5yEk+0KP1jD9F3q6BPahQtsximlp26BIFqg9zr6mqQvVLFaU5HVuJrPg6S7Gon5SczHiLlantWnyxQQ1ri3uU++L7VwDdC4+Qk1b7hhBbDS0aBgEQMEEAQmwCjqmiQ5Ig5pIEkffx8hqv7mlWpuqqBa7tnCViH7Ahe9kpa7x0vvP0HYHCRHbK4m1EvJ2IgzzSZceoEUZew2juNUWD/33w1izeosWhyvDJFBqP6WR2PAuZNEwcZqL2AP/vUlpf8n3LmcX6j6Znr17LSat9Q4ithhYNgwAImCAAITYBx1TR5t+6Eh98wWHbmYu06MBRui0d98jhvjSVzCNlY2FEs/rUoXolUcxTyTylrBvyZXKhwKH/E9l8QAdPYfOrCP/5b8tTc//5dOTqTbFfVx5dt5+7lHadv6LblEibc03dimohDjh9QXhoX73/SNdMSQ9vVo9qFStE7M297vhpsX7NAlxF2uLVXzqURD4FbOjaLZLT1hGlnjqivm/O50NM8vv4qU2sFocQWw0tGgYBEDBBAEJsAo6pojaVy9H4Vo0MmnRdsJK2SMIlB96CxGdGmxPKDhlP98Ofk7p9+fjLlhXL0KQfm4hmeDqcxV490lWLelyuqds/Fs6t/X7VzRZpdk5jJzV12NLXm0rmzK5kvZQOH0khOWupj7nkk8HYs9tYUN8321y+c59qjp1uzNyi+RBii+JEYyAAAmYSgBCbCcqQWcfqHtJRkFXJOVVKxRGJ7UoPHkcPI16IKupRrKE21HnsAc2e0BxkByz1euqYlg3ESx/UW4kGN6pD3jU8hac0e0xziOs1RWWdjyblSpJPXS9xWIhaUIdJ67a6L2HgfdHsSGboLG325OY9zwsDj5icxp8g/bhpLf3IkUNctobJdWP7DSGOLTHYgwAIWIIAhNgSFNGGFgHe65zHJSNlSpdaTNeH3HsovqOkbViJOaiFWN3PDb120d1zD9VZIt51xw9k76Q907F/ahBd2BSiZ4sMEAABEDBGAEJsjAzybY6AY3IH6ry1pd59b/ifJMRn9YXYe3drsrPXfrtU4KRjdHHLNb02kAECIAACxghAiI2RQT4IgAAIgAAIfAYCEOLPABmXAAEQAAEQAAFjBCDExsjEIr9eVlcaU7yAUmPQuWAKuKs/lSkbwN40H5kTvkEABEDAFghAiM18yiyehsRVLaonnkZQ2fSaV/cZE2PYm+Zj5uOAGQiAAAh8NQQgxGY+yrN1PElXXNWiOufaLZp9LYy887lR13w5Rauwj54pMIePmY8CZiAAAiDwVRGAEJv5OFmIOcjiakiE5aYMiTHsw2Q8Wj9WSmw/qOQjAgIgAAK2SABCbOZTV4vrmrB71MIti6gpj/R0m4G9eXwgxLp/OUiDAAjYGgEIcSyeuFpcuZoxEZabhL1mul7mofvNfHg6HwEEQAAEbJkAhNiWnz7uHQRAAARAIMEJ/B8AAP//DQGWYwAAJY1JREFU7Z0J3E3FG8efhLJHiGSLbBUKCfmTXYtQyJKQ7Ft22ZM1W7YoW6UktIgkhUhlKUJI9uxbhAjlP7+5zTH3vPe+773vUsd9f0+f3nvOnJlz5nznuL8zzzwz94a06TNflThY8RIldOn169bF4SwsSgIkQAIkQAKJk8ANFOLE2fC8axIgARIgAW8QoBB7ox1YCxIgARIggURKgEKcSBuet00CJEACJOANAhRib7QDa0ECJEACJJBICVCIE2nD87ZJgARIgAS8QYBC7I12YC0SgECT/z0oxe/MIXuPn5KRi75IgCtE9ikzZM4qNZt21jd5cM8OWfL+G84NN+w4UG66OaVcvvSnvD2mj5MeCRup06WXG25IImdPnwzrdm5IkkQyZMoqvx0/In///VdYZeOSOe89xaRq3ef1KWa+0kPOnz0T0uluuTWz/HH+rFy6eCGk/NdLpmDPZqUnm0qOvIX0bSx4a5ycOPyrZ26JQuyZpmBF3ARy3Jpebk6eTE6dOy8nzp53H45x/8dhL8qtqVPJzqPHpfygsTHmZwZ/AkVKV5TOI97SiWdOHZMONe5zMsxcdUCJ1Q16/9mHsjnp1+NG8XKPyCMNWku23PnkphSpnPu6+vffcu7saflg6iuy7EMfB/f93V+2qirbRnLlv1eSJb/JOYwXlG0/rJbJA9uFLIxO4TA3ajZ9QWo911WX6vNsJfl117aAZ8iep6B6sXpB7nmgnN99/nXlihzev1PXNVjZgCf0aGKwZ3PMB+skQ+bbda0n9W8ta75c4Jk7oBB7pilYETeBveMGSVLVy/hiy3ZpMvlt9+Fo95PeeKPsffUlnWfemg3S6e150ebnwagEEosQdx31jtxbsnxUAFbKzi3fy6BWNawUkZIVa0ibga/5pbl3/vrrivRvVi2oOLrzx2Y/VCF+8+uDMZ7+3fEDZMmca56PGAt4MAOF2IONwipdnwRyZ7pVVvX3uUVHfLJUxi1ZEdaNpLopuQyq87jq3Yi8s3qdrN+9P6zyzCySmIS4UPGH5MCu7fLzj9+p3uEuSZ8xi6CnnDVnXqeH/OG0kfLRjDHOo2EL8YHd2+WXzetl78+b5Nbbsknlp5pJilRpdF64its9em+CuavvLl5WajTpqK81oU/LoC51I8SnTx7TvfVdWzdI0qTJpNzjDSRrjjy6PLwAvRtXlIN7dzj3eb1tUIivtxZjfT1LoH6p4vJKw1q6fk+OfUPW7Nzr2bpGasUSixBDMC+osdJAdl+ZytJp+Ex96OiBvdL96TJOtrvuLSFPPt9dMC575NfdTjo2bkyaVCYt3io3K1c3bESnp+Wn9av09n/1Z+C0xdrN/uO3y6JUod+UTyTP3ffr9JWL3pNpQ7tEyXO9JFCIr5eWisd6ls2fR8qo/0vcmVPSp04pB07+pntfM1Z+J2cvXAx4pRRq3PN/BfJKpXsLSOHs2eTMHxdky4HDMnbxMvk9SJkWFcpI2hQpZP2e/bJu116pVaKoVC9SSG5Ll1Z+OXJMhi34XPadOBXlevdmv12qFi4kV9V/4z5bIQWzZZGnHrhPSue7U85cuCCLN/4kU5d/E6WcnVDxnvxS+Z4CKvApp/yl3ph/UnV97YuV6rrH7WwBtwvcfptUKJRfHsibU3KpXu7RM2fl50NHZdqKb/zqe1OypNK+SnnnHNXUvaEsbNLSlXLpyrXgl4OnTsvsb9c7ec1G50cqSpJ/xi1N2rHfz8pbq9aY3aCfNyoXeLHc2aXyvQXlwby5dC9o26EjMk2x2a7qG8hi2ybmXMmU+7xJuQf1s5MjY3pJrr68wWfLr4fkXdWL33M8+mChBmVKSJZ0vl4XzvmGqmuwZ85cM5zP+BDidBkySZW6zSXv3cUkc7acckb1xvZs3yQfzxwj6JkFsyRJbpSazTpLoWIPSfpMWXS2c7//Jvt2bJEv5s+Q/b/8FKVovTZ9JGXqNLJ57Uo5vPcXqVrveSlwXykdULZzy3pZOGuSHD+0L0q5mBKmLd8jSZMl1+dpXuHOmLI7x5t2Hy7lazTS+4tnT5b3Jg5yjsV146HqddSYdv4op/lY9dgvXgg/nqJA0VLSa4Jv+Aaegd7PVoxybpOQv0hJKV21tmTPe7cOTkO7HFDj0vOnjowVX3Ne9ydekMqr3nrhUhWVh+I2uTllajl59KDs+2WLrF48V9CjD2QU4kBUIjQNQUDvtmsqd9+RNeAd/n31qlQdNkG2HTzidxzisqhbG4HwuO3yX39J/Qkz5Ltf9vgdgnD/MnqATlu6ebvcrwQD17cN16s4+NUo4jihST2pWbywzjpGCf0L1SvYxfT2sp9+lsavvRUl/ZaUKeTtNs/KfbmyRzmG67384WJ5fdnqKMeQAGEbXr+mPF2qWMDjSHzpg0+d8mXUi8GcDs8FzWsf2KFePCq8/KqdJHdmzigr+73gl4adX9WLUan+I6Ok2wmpb75JFvdoK3CHB7IhHy/RLwP2sbi0Cc7zRLHCMrrRkwGfAxwH3xzto49G3j/+Zb8XjyI9h8hJFdgWXxZXIS5VuZY833us7h2664QAockD28ra5QvdhyRbrnwycPpnfsFP7kytqhaI0oudufJXQeQyeq4Zs9wR5bq45ujujWXL2q/cpwu6jxeC6Sv26vOi14zrhmqNuwyRirWe1dkXvj1e5k4ZFmrRGPONnr9Wu8DdGaML1nLntfcRed13si94CS87/ZpVtQ/rbbyMtHv5dYGXIJjNGNFdVix4J9jhkNPxDAyZtTza/MFebijE0WKLnIMQpnkdmztfoujRbtx3QA6onhqEtljuHPpm83cZKOf/vOTcOHrNczs11wFISNxxWPUOVK8HvWN8scN+O/+HFO01VPc8dYL6U67gXfJO2yZmV3+uUb3i8xf/lDL58jj1gEg3nfK2Xz6Ms9oCgy9quHnRM7bTi/Ya4heZnD5VSlk7qLtTL0QeY5y19F25JUfGDM41Kijxx33YlibFzbK8d0fJcktanYwXDPSi0dND2ZJ5cuk6t5v5vny0/kedB0zbVSnnnKZq4YJ6G/V1j+8u2bRV3v/uBycvNvLelkl6PeH78kCvuLLyNsAWbdgiLafN1tuB/mRMk0qW9movmdL6epZHTv8uP+z9VfeO4W2AQRQfGjBK9itRNxaXNima8w5Z2K21OZXsV56M71SbXFGc7lEejMI5sum2QJsEM9zvir6dnMMXLl2WuzoPcPbjY6NIqQrS+RXf84Tea8cn7nNOG+zLzmSwx0+Rhl7WIRWZe1u2XJIz3z0621XFtWeD/0Vx64798PtrveAzv+lAp9Mnj6qyuXVZuH3bVC8UJRrZCLGpA+q8Z9tGPc6bJbuvJ4sx0NaqbDBXtCmLz9vuyCUt+02QPIV8973pu2UyquszdpZotwe/+aXckcf3HPZtWiVgLz7aE0RzsEm34XJnwaI6BzwGadNn1NuxFeKn2/aV6vVb6XMsfm+KvDfhpShXt+8HHBFhfeTAHsl8ew65484C2mvgHkePcpIQE/CMvDR9ic6N6WBHD+6R344dVs9FVkGPHC9csAVvjpP5bwzX2+ZPsGfTfnmZ2LdlwJdAc45/+5NR02ESx5SNDUN6Cb7AYXCx9p+3yO8s6J3BTdpu5hwnHVG8P4/s54gmBBPCaeyLFzs4rth646bJ6h3Xxpy6P15ZOlQtr7P+efmK1Bg1WQsbErKlv0XWDOqmj0HUyw4crbfNHxN5jP0P1m2Ujm/NE3wBwt5q3Vgq3J1fb9cfP11W/bxLb+MPeqfopcK6vfOhnyvYFqHPN2+TZlNm6Xzmz5Tn6suj9/m+bCHAqC/qbQw9UPSWByhux8+eM8nOp31Poz9dJqM//dI5FsoGhOzT7m10VrQN2iiYfdK1ldPjd7dlv9qPCNzPsOkrvpV+86713uLSJnipAkMIfKUh46K8yNyR4RbRYq1eIoJZo4cekGFPP+EcBmd4YOLbMKcWdunPi37zTVMoF/CNNyYVRAVfOOc/voovydfU+Chci3jWxqheqD0uaY+7IsgJwUHGUGbyEt+/i3NKhNs+6nuOzHGIcLV6LeWzOVMEPVzbbCH+ZfM6ebl1Tedws54jpdxj9fX+V5+8K9OH+/7NOBnUBuo9cOpiSaL+rWZS4mLGd5Hn7JlT+qUBdQrFEEDVfex7OitcxS0r5wulWKzyhBo1HezkaMsJn2zSQor26tWovBzet9Mvu/1idf7309K/+SN+bmhM3UIE+cbVS+WrhcFffP1OGs0O5jg37jpU5ih3PjwctmG4Y8yH6/XzF8hLEezZTH5zCkl+0836VAigw8uEV4xCHGZLdKz2sHR7rJIuhbHVAfP9RTjY6VpVLCt9alXTh/vOXSgzvvrWLyt6gz1rVNFpOKc9bvu+EkWM6cKen/quHtfVO//82fZKX0EvFGOZ+GI3hnm43wzsqnfRW4eL1ogwEu0v85qjpzg9T/RGp7VopMvhhQAvBm7brl4qIKjozZVWvUVjtgiiPhAHjCuHY0+qMexXGz+li7hfSkI5z/NKPPsrEYVVGzZRjb8fCljsriyZZHkfX6/yq22/SMOJM/3y2b1OvKTgZcVYbNsE5eFpuD19Oj2eW7DbIHPKsD7HPvOUPFXyWg8VY8rdZ38U1jkSKnPlOs9Jo46+HhXm3745qleUS5k5nXgem5bL4XwpZsyaXUbN/U7nRwRy/+eqRykbLMEWYvTe7TFouJinLt+tv7wv/nFOWlbxvYDa50KeGSv320l6G4FYmIIU6tgrXLgTP93iCPnILo1k85ro3axRLhpGQlyFuN/rC51e//KPZ+ngM/flTXshHS84eNH5L63nuLlS8P7SugrX+zx23ASFOIynCb3hPWpuKua2wt2ar/NA/RnTKVBu64g+WizhQizQ9aUo4oRx3wVdWulTTfz8Kxmqgq+MbR7eW+Aqhgv87u4vm2Tn04wVIvAKQm2s3oPFZFSj2noXX9L4srbN7vFBEEygj1kIAz224n2GyzEVQOS22e2bCQLVUMYWk896tpV77rhdZ39kxCTZtP+gu2iM+680qCX1SxfX+fK+MEAuXr4cYxk7wxvNG0j1onfrHmfODn39Xj7sfBj/friQr6cSyMWOvIatu8cZ2zbBOae3bCRVVFAYDC8Ag9RYe7CAMJ0pwB+M32ew4gSOq6C0s2qowgvWesAkebCSr7eOHi+CebBSFcwsAgJXsXGnDmlbW00bWuNU3bgWIdKI4MVYoLuH5mS2NowQnzl1XC0+UtQ64tscNONzyXHX3fp5aFL2jijH0SN+ecZSueHGJJI67S2S9paMjgsUvcA+TSrJKeUejclsYVu/YpGM79MipiJxOh4XIa7VrIsOikMF3MMPdqWmLd+reszJos1j54+vbfRuK9Z8Vg8vYFqY6dHi+Uml2gj2fKW8ft6a+Lr2v3keCnEYtPNlzSzL1NgnDD1a9GxDMbtnhQjeF+f4giLsso8pV+5k5dKFvfD2fJm7xjcGishaiD9s/toN2rWsd/75Y/fqBn/0mYpmXuUcRjBQ3Qfv1/vu8WokftS5pV4C0h5ftIOQnBNFs3H0zO9SrPdwJ8euMWrpQxWItuvoCSk3aIyTHs6GcdMHe/GI6VzfKi9AduUNwHgvXiSCmanrXuXSf8jl0kcZm/2n6iWnxT8vOXZ6uG2C85bMm0vmd3oem45BSBcqV/RwNWf6nEcE1alcmBtG8EItNmNEDxXgc214o1X/CYJAL9uuqJexI2p+76xX+6o5sN/Yh5xtI8Rud7fJ0HXULLVwx8N6N9AYs8lnPuGabj/4Db0SFdLQM+5Rv6w5HPCzw5CpUux/1fUx5O/ZsJzT2w9YIB4SYyvE5Ws0lKbdR+gaYCUwTM0K9KIBt/PUZbt1PkQqv9TisXiodcynQKBfmapPOi9DwUqE0pbBynolnUIcRks0VNNFMLYJc4/xRncaRMhObFpPZ+nw5lw9VuvO316NAfdQY8GwykPHO9HW9pe2LdCmfOOyJWVIvRp69/GRk2WDCjQytqxPR8mXJbOOpEVErduMS9vu7aGXi95uqIbAL8zzhWHcfOPQF/U2phdhbDk2ZgTSPnc45zG92OhW5LJfOD75YbO0nv5elEvYLzkYp8Z4NSwubWIuAg8IXpTwkmbbFeXG76CC2BaoOl2vBtcyXMww9Ghjss9mTxH3AhIPVqopDToMEIwHug0LbiAo6crlS36HjBDv3rpRBrZ41O8YdjoMnSbFylbT6RiXhmCHYnbwWJc6DwZdo/jZLkOlQq3G+pRYErTLUw/qKU+hXCMueWIjxFias8OQadpDEdPqX5my5pCRc31DaZvXrJCRXRrGpbohlbUjzuEZQVsdVS828K7AMAaf6facehuLpWAM/3o2CnEYrWf3MNHTQo8rFHtRRfO2qfw/ndUtlqa87dLNpdyp+EKG2WPSGOPFdBzb7OlJdjnkQU8avbdA47y2EGHlqR7/jC92fbSSdKru6zXAhR5O78weW0ZgEwKcwrVMaVLLhqG+MUW3iz6Uc9neB8ytnqDc/IEsuqEAkx8vRnhBgmF6F6Z5weLSJvoE1h8EZtVTU7yaly+thy5wKKaevFXck5uYj4p5qbBA04zCqTQEvXSVWmr1p4Z6SpIpi4Cg6cN88Q8mzQixe+ENc7zXeFUvNa8Y9tzDuaMIucnn/mzR91XVM/PFLEwZ1EG+WTLfnUVqN+8mTzTppNMRQNS1bikJNbALAWi2uYPQ7GOBtsMVYoyt9hg7R/c0EbA0vFO9oF4Gcz0zXBDM22DyxdenmbsNTwgi648f9h+7RyAcxBhGIVYQipcooWGsX+c//qgTI+wPAogQSAS7v/ewgGOngW55ZMPaznzaQOOmdlDVyu07pYGaS2xslhrHLK/GMSHMEFq3melJ+FEEe7pLZrXQww+De+rsYxcvj/LrQ3bPt/2b78uH637UeQc8+ag0f7i03r5PTaMKFNXsroPZf0SNy76uxmdhfd7/RGaqRU3CNdtFb4tfqOexvRZ2AJq7PMZoMVYLG79khXYJu/OYgDS8jGAc3AS6xbZN3Od375sgLqTbY/bufHVK3q/GmAs4ye98s15WbN3h7P/XG3bPcHS3Z/wipuNSt9LKTdmy7zh9ikBuYiPEf178Q1pUuivKpUbNW6PFHD3AZuV8vakomQIkvDDiTSla2hegicAz9w9AYOGQBu0H6JL4JaMeDcoGdPEGOLX+EQbzgw3meKdaxfQvOJn9mD7DEeJc+QtLv9c/0UFreJ7Hvfic/LBqSUyXkClLd+jgM7iwMSabkBHHadJlkAmLfB4h1O3VXlE9dHbwGIVYNV9iEmI78hk9SPQk3YaeJoK57MCZ1pXKSu+aPpfYlC+/1sE5phwWvsAUGkQbw9xBQxuG9NRzXANNTUJ+Mz3JHfVbs3gRmdCkLrLoaF97ahLS7J5viT4j5PDpM0jWY8ro+cOim/qDoBvM17UjonOqOcKrB3TRZaNzC6PXG0zguzxa0Vl0BOO2GL8Nx8Y9W0dqq1XHYLk69tNzcwOVxypfX/+zlrU72hz5EcFu5jW7F/SIbZsEqoedZsbsESQXXZCZGUM3Zd3Ty0z6f/Vpr9IENzJ6NMEMEcZuF3OwvJhKNWHhZu1OxQpLnZ98wC+rEWIkwn0KN6ox/KTjmA/W691Txw7JC7V9HQgkwP2NAK9AlipNOhm3YKOe2oPjbtd02UfqSvMXx+iiuA+4vPGSEKrZwVKmDO4L9xeqhSrEWDf75Zlf6KArnPv1QR1l9ZJ5IV2mz2sfCZb0hH08c6xeKtNdEG15k5oiFOrPMLrLm317ClugFy57ahjKUIgVhMQkxFisA1+CMAQ4NZw4Q9bu2qf3MZWn8UMlBULSedZ8+fj7TTodf2w3KAKQ2qoxQPRgsODFRLXyFcYcYe4pMhB0CC3so/Wb/OYlIw0BSQhMgtljmNjHHFNMT4JhoQfU1zYzTxjR37mVYBmDq/S7l7rpXfTC282Yo4OIzHEErOGFBOPeGFfFPGLbsAIYXkZgvd9fIG+uXKO3MY+6kpqzPPTpGvKNWjmsrTpvILOFGItx4HeEQ1lK05wLi1zAPY2FQAKNi5t8dgQ8hA8BdHO+/V4HmrVXU8na/rO4CKLC71Xj61hsAxaXNsG8bEwLm64C/RBUZ6LUsbhKs/KlBOtrw9zPgU60/pgxdJOEueMxLYdp8v5bn3bkMBbVGNOjiSN2+KLFilNY+vLiH+f91m/OXaCI9J70oaxTK27Ne324I0hwUbfo86pezAH3ECga2RZi9EwHqLmuGHtGD2vw28uc8Waso2zGrs2XPlyfX37wpl4PGouPpEyTVv/oQ93WvQViDPv9txPS/vEieht/IAjdxsx2IsGx9CZePAIZpmLhF5zc9m8JMaKPx320QTCXFrZ947eK8SJ3dfQ+oqfB1za8yIyet9YJnFo6d5rMnqhmf6i53Ig2L1mhhjTr+Yp8+s4kvx/GsM8RzrZxTaMMvBCY+41rYYy/zUuTnZcJHKcQKwiJSYjR6PZiFdg3C1XYS1YGcltjgQnT60U5iBy+1I1hHBcuabuHaa/ABKFwr5kMF+WYZ3y91zqvTpVvraUxl/Rsp5ffdE8vMtczU5QC/VavLeLIj7peVEKeUv2ikb2Ws3s1LuS15wCbsmCEX0MyFp3b2p6HbPKbT6zChdW4jNkvOCYt2CdWLLu3x2C/w7bo4wAE2b4/iDkC5+zpW3FpEyzy0vmRCk4dAj07aC94AnDtQGYHxOE46hzTUpiBzpPQaVjtadi7K525tLieGfu0x0QhgF3r+MZtkQe9LvS+jMGN/Ld6CbJ/6xfn6YFxw0O+l2CT1xZik4YxRky7MebuDRshNseDfcIV2++5an6rY2Fta/yOcSi2Y9NaGdzGPxIc5WIjxPYPNMR0bbMMJFa+GvzWlzFl18eDLUCCtb9RX9vgqrbbJr5W1nq6XT+p/nRL51Lg//fVv7VLHYl40TIvFRRiBSSxCTF6dn2Umxk9GPtLGw8HBGvJj1sDLqmIeZ/oDZneL/LDsATmx0pgAi3G0LRcKfVTfr6pAg+/PDZKzxA/89dU/WgALM8L/Z2XAuyb8U0sD4mxUrcdmOATpUC/1Qt3Odakble1nN/LgjkHptqghz5QrRUdyDBlanDdGk7P2M6DecXNXp8VbaAbXMsQLCyHaTN2u8qx6hXmQodidmS4yY/77Fe7ujynAqVsQzsi+hxj1KbXao7HpU3goeilXN7p1LPgNgjqbDXWiylowX74A2WwEhpWRDMWylraJu+//QlXZYfBU9Wi/RWcXqNdh9MnjspnajlFLKloDD3f3hM/0EsZmjnH5hg+EYg1+aW2gshotxkhRm8vdZr0zvKSJh96pYNaPeHnCkcdsZoW3Lb2C4Ipg0+Ue21A2ygu5zqtesljjdrZWYNuo05D2/kCvuxMtlvZpMc0RoylH80yoaZMsM+l86bLrLF99frdMa3dbM4RbMETHM9X+AEdfQ4vg9tOHDkgE/u1DNg27ryh7CMeoFSV2n7PDgT5a/WDD5cuXXTW8cbqa6EGxoVy3f8iD6OmY0kdPeD8WW+Tgrdn0QK8S63FjC97uHqjM7ijsa5yyuTJlQtyp19vK7py/8UxRFzre1SuUwjivpOnZKf6wQUEhsVkEDmsZV1IlU2tVv3ac+yE5hOdyMR0zoQ6jlXJiqox+uxK+PHLVuG4wmNTp6y3pNPLmWZTwwCnVU8dP2Kx+9hJx/0dm3N6uQxclznyql/TUpHUSdT2gT071C8wbYz2yxOiiPz4nVyMDcPlizmsJw7/GvRWjRBjnvGwDnW0SxpLMyJ4C0E/MY1doteYLXc+FdCVXf928L4dm/UvRYWyLnXQSkXoAXgSEH0NZhBg9Pija5vYYoDg47eise73th++/c9X9IrtfcRUjkIcEyEeJwESuC4IuIX4uqh0hFYS4+pJ1Frk4RoC3hLjiw+FONwnhflJgAQ8SYBC7J1mmf7VPmc8N5xaBVueNJxzXI95KcTXY6uxziRAAlEIUIijIPnPEmIrxO7I9P/sBv7lC1OI4wH4o7dnliGF8ztnenHTz7Lo0DFn373B/ORjPxPhPg92WW5fI2C+/Ld+/7UM7+hbUvbaUW79mwSKlK7oFzEf6rURwGf/AEio5a73fBTiEFsQX5aBxNX+El1/6owUz+CbcxhMjJmffOxHLtznwS7LbRIggcggQCEOsR1/rFZW3OJqf4lO3rlPXtu5X1rnzSGt8vqWz2P+a54C8pE4Pz8hPqrMRgIkcJ0RoBCH2GAQYpgR10AibE4VSIyZ/9qi7eRzTEJ9Hop8tso8VvwkARKIUAIU4hAb1haP9/cflro5suqSpqfnPg3zk4/9TMT2eaAQ2xS5TQKRSYBCHEa72l+mKBZMhM0pmd/nrjc83J/kEzMfDHfQSIAEIpsAhTiy25d3RwIkQAIk4HECFGKPNxCrRwIkQAIkENkEKMSR3b68OxIgARIgAY8ToBB7vIFYPRIgARIggcgmQCGO7Pbl3ZEACZAACXicAIXY4w3E6pEACZAACUQ2AQpxZLcv744ESIAESMDjBCjEHm8gVo8ESIAESCCyCVCII7t9eXckQAIkQAIeJ0Ah9ngDsXokQAIkQAKRTYBCHNnty7sjARIgARLwOAEKsccbiNUjARIgARKIbAIU4shuX94dCZAACZCAxwlQiD3eQKweCZAACZBAZBOgEEd2+/LuSIAESIAEPE6AQuzxBmL1SIAESIAEIpsAhTiy25d3RwIkQAIk4HECFGKPNxCrRwIkQAIkENkEKMSR3b68OxIgARIgAY8ToBB7vIFYPRIgARIggcgmQCGO7Pbl3ZEACZAACXicAIXY4w3E6pEACZAACUQ2AQpxZLcv744ESIAESMDjBCjEHm8gVo8ESIAESCCyCVCII7t9eXckQAIkQAIeJ0Ah9ngDsXokQAIkQAKRTYBCHNnty7sjARIgARLwOAEKsccbiNUjARIgARKIbAIU4shuX94dCZAACZCAxwlQiD3eQKweCZAACZBAZBOgEEd2+/LuSIAESIAEPE6AQuzxBmL1SIAESIAEIpsAhTiy25d3RwIkQAIk4HECFGKPNxCrRwIkQAIkENkEKMSR3b68OxIgARIgAY8ToBB7vIFYPRIgARIggcgmEGchLtejRKwIrRu/NVblWIgESIAESIAEIokAhTiSWpP3QgIkQAIkcN0RiDch3v35wZBu/s4q2XQ+9ohDwsVMJEACJEACEU6AQhzhDczbIwESIAES8DYBCrG324e1IwESIAESiHACFOIIb2DeHgmQAAmQgLcJxJsQZ0vVSnIVrCSXL1+QSxfOyv6fl8umVdPk0sWzfgQ4RuyHgzskQAIkQAKJnEC8CXHuDF0lW94yfjhPH98tC6Y87ZdGIfbDwR0SIAESIIFETiDehHjvF0cl2U2pJF3G3FK25kBJlS6rRvvxa3XlzMm9DmYKsYOCGyRAAiRAAiQg8SbE9vSl7PnLycN1XtF4V8zrIfu3L3dQU4gdFNwgARIgARIggYQR4vSZ88rjLd7VeNd9Pka2rZ3toKYQOyi4QQIkQAIkQAIJI8RpM2SXmm3ma7zrl46VrWt8oowECjGfOhIgARIgARK4RiBBXNMU4muAuUUCJEACJEAC0RFIcCHetGqqbPzqdacO7BE7KLhBAiRAAiRAAgnjmk6WPKXU775C4z15eLssmtbYQU0hdlBwgwRIgARIgAQSRojBtVGv1ZLkxmRy9erfMmdkJbn05zmNm0LMp44ESIAESIAErhFIENc0Tl+gRF15oGpXfaW/rlySI/u+l/NnjkjSW0/KoaOLhL++dK0RuEUCJEACJJB4CSSYEANphiz5pVztIZJGRVEbu/jnMVn/Y0sKsQHCTxIgARIggURNIMGE+M57qkmZJwbIDTck0e7pEwe3yO+nfpUktxyTg0cWUIgT9WPHmycBEiABEjAEEkyIG6hgraQqaAu2cGpjOXVku97mGLHGwD8kQAIkQAIkoAkkiBAnTXazNOixUl/grOoFfzjpSQc3hdhBwQ0SIAESIAESSJioaXtBj82rZ8qG5ZMc1BRiBwU3SIAESIAESCDhhZhLXPIpIwESIAESIIHgBBLENZ3u1lzyROv39VUpxMHh8wgJkAAJkAAJJIgQ35bzfqn6zGRNd/WCgbJr0yKHNF3TDgpukAAJkAAJkEDCuKbLPN5P8hR5TONdPLO5HD+wyUFNIXZQcIMESIAESIAE4k+IU/1RRfIUfkxSpL5VsNY07MrlizJnVCXBylrGKMSGBD9JgARIgARIQOJPiHNn6CrZ8pZxmP554Yys/niAHNi52knDBoXYDwd3SIAESIAEEjmBeBsjPr0pjaS9NYdcOHdCrSl9WM6dPhwQLYU4IBYmkgAJkAAJJFIC8SbEuz8/GBJCCnFImJiJBEiABEggkRCgECeShuZtkgAJkAAJeJMAhdib7cJakQAJkAAJJBICFOJE0tC8TRIgARIgAW8SoBB7s11YKxIgARIggURCIN6EOFxe68ZvDbcI85MACZAACZBAxBGgEEdck/KGSIAESIAEricCcRbi6+lmWVcSIAESIAES8BoBCrHXWoT1IQESIAESSFQEKMSJqrl5syRAAiRAAl4jQCH2WouwPiRAAiRAAomKAIU4UTU3b5YESIAESMBrBCjEXmsR1ocESIAESCBREaAQJ6rm5s2SAAmQAAl4jQCF2GstwvqQAAmQAAkkKgIU4kTV3LxZEiABEiABrxGgEHutRVgfEiABEiCBREWAQpyomps3SwIkQAIk4DUCFGKvtQjrQwIkQAIkkKgIUIgTVXPzZkmABEiABLxGgELstRZhfUiABEiABBIVgf8D1tYxon3T250AAAAASUVORK5CYII=;" vertex="1" parent="1">
          <mxGeometry x="240.29" y="430" width="139.42" height="70" as="geometry" />
        </mxCell>
        <mxCell id="cirKSVXsWCPnHdK5_3kZ-31" style="edgeStyle=orthogonalEdgeStyle;rounded=0;orthogonalLoop=1;jettySize=auto;html=1;entryX=0.25;entryY=1;entryDx=0;entryDy=0;startArrow=classic;startFill=1;" edge="1" parent="1" source="cirKSVXsWCPnHdK5_3kZ-28" target="cirKSVXsWCPnHdK5_3kZ-7">
          <mxGeometry relative="1" as="geometry" />
        </mxCell>
        <mxCell id="cirKSVXsWCPnHdK5_3kZ-28" value="optimizer" style="rhombus;whiteSpace=wrap;html=1;fillColor=#f8cecc;strokeColor=#b85450;" vertex="1" parent="1">
          <mxGeometry x="430" y="470" width="60" height="60" as="geometry" />
        </mxCell>
        <mxCell id="cirKSVXsWCPnHdK5_3kZ-32" style="edgeStyle=orthogonalEdgeStyle;rounded=0;orthogonalLoop=1;jettySize=auto;html=1;entryX=0.5;entryY=1;entryDx=0;entryDy=0;startArrow=classic;startFill=1;" edge="1" parent="1" source="cirKSVXsWCPnHdK5_3kZ-29" target="cirKSVXsWCPnHdK5_3kZ-7">
          <mxGeometry relative="1" as="geometry" />
        </mxCell>
        <mxCell id="cirKSVXsWCPnHdK5_3kZ-29" value="simulator" style="rhombus;whiteSpace=wrap;html=1;fillColor=#f8cecc;strokeColor=#b85450;" vertex="1" parent="1">
          <mxGeometry x="510" y="470" width="60" height="60" as="geometry" />
        </mxCell>
        <mxCell id="cirKSVXsWCPnHdK5_3kZ-33" style="edgeStyle=orthogonalEdgeStyle;rounded=0;orthogonalLoop=1;jettySize=auto;html=1;entryX=0.75;entryY=1;entryDx=0;entryDy=0;startArrow=classic;startFill=1;" edge="1" parent="1" source="cirKSVXsWCPnHdK5_3kZ-30" target="cirKSVXsWCPnHdK5_3kZ-7">
          <mxGeometry relative="1" as="geometry" />
        </mxCell>
        <mxCell id="cirKSVXsWCPnHdK5_3kZ-30" value="validator" style="rhombus;whiteSpace=wrap;html=1;fillColor=#f8cecc;strokeColor=#b85450;" vertex="1" parent="1">
          <mxGeometry x="590" y="470" width="60" height="60" as="geometry" />
        </mxCell>
        <mxCell id="cirKSVXsWCPnHdK5_3kZ-34" value="Antler" style="text;html=1;strokeColor=none;fillColor=none;align=center;verticalAlign=middle;whiteSpace=wrap;rounded=0;" vertex="1" parent="1">
          <mxGeometry x="165" y="405" width="60" height="30" as="geometry" />
        </mxCell>
      </root>
    </mxGraphModel>
  </diagram>
</mxfile>
